<?xml version="1.0" standalone="no"?>
<!DOCTYPE svg PUBLIC "-//W3C//DTD SVG 20010904//EN"
 "http://www.w3.org/TR/2001/REC-SVG-20010904/DTD/svg10.dtd">
<svg version="1.0" xmlns="http://www.w3.org/2000/svg"
 width="512.000000pt" height="512.000000pt" viewBox="0 0 512.000000 512.000000"
 preserveAspectRatio="xMidYMid meet">

<g transform="translate(0.000000,512.000000) scale(0.100000,-0.100000)"
fill="#ee07f6" stroke="none">
<path d="M156 3865 c-20 -22 -26 -38 -26 -74 0 -25 16 -397 35 -825 38 -842
35 -815 93 -837 40 -15 227 0 291 24 61 22 127 82 154 140 10 21 86 302 169
625 136 531 149 593 145 652 -7 109 -67 199 -162 246 -84 41 -240 64 -472 71
l-201 6 -26 -28z"/>
<path d="M4576 3839 c-198 -25 -386 -64 -443 -91 -128 -60 -201 -219 -160
-349 8 -25 119 -296 248 -603 255 -609 261 -620 363 -674 49 -26 58 -27 196
-27 91 0 153 5 165 12 51 28 50 9 16 785 -41 956 -39 916 -67 945 -20 20 -32
23 -96 22 -40 -1 -140 -10 -222 -20z"/>
<path d="M2525 3766 c-229 -85 -449 -283 -619 -557 -53 -86 -82 -161 -91 -235
-5 -40 -2 -57 17 -94 27 -53 69 -73 138 -64 88 11 145 42 237 125 165 151 336
245 464 256 l56 6 214 -180 c118 -98 408 -341 645 -540 237 -198 440 -366 450
-373 17 -10 27 -9 61 8 45 23 146 129 140 146 -3 6 -104 248 -226 538 -121
290 -223 545 -227 567 -4 22 -12 44 -18 49 -6 5 -171 64 -366 131 -195 67
-431 149 -524 182 -195 68 -249 74 -351 35z"/>
<path d="M1480 3515 c-135 -7 -250 -13 -256 -14 -7 -1 -15 -18 -19 -38 -3 -21
-68 -278 -143 -572 l-136 -535 145 -139 c159 -154 336 -310 534 -472 134 -110
514 -399 619 -470 l59 -40 98 1 c115 0 152 17 157 71 3 28 -10 42 -135 158
-76 70 -144 138 -151 152 -28 52 25 133 88 133 32 0 44 -9 205 -155 270 -245
282 -252 373 -235 62 11 99 33 121 72 28 49 -4 91 -206 274 -101 92 -191 177
-199 188 -17 24 -18 79 -3 108 6 11 26 26 45 34 29 12 39 12 67 0 17 -7 149
-116 292 -241 142 -125 268 -231 279 -237 40 -22 164 24 185 68 12 27 14 64 5
88 -3 9 -88 86 -187 173 -391 338 -386 334 -387 388 0 65 72 111 129 82 16 -8
181 -149 366 -313 185 -165 347 -304 359 -311 53 -31 138 -7 170 47 20 35 21
109 1 137 -24 35 -1275 1078 -1297 1081 -26 5 -142 -51 -203 -97 -27 -21 -86
-71 -131 -112 -92 -85 -180 -133 -281 -154 -87 -19 -115 -19 -188 0 -77 20
-126 53 -169 113 -83 113 -85 281 -7 446 34 71 135 228 188 294 l34 42 -88 -2
c-48 0 -198 -7 -333 -13z"/>
</g>
</svg>
