<?xml version="1.0" standalone="no"?>
<!DOCTYPE svg PUBLIC "-//W3C//DTD SVG 20010904//EN"
 "http://www.w3.org/TR/2001/REC-SVG-20010904/DTD/svg10.dtd">
<svg version="1.0" xmlns="http://www.w3.org/2000/svg"
 width="512.000000pt" height="512.000000pt" viewBox="0 0 512.000000 512.000000"
 preserveAspectRatio="xMidYMid meet">

<g transform="translate(0.000000,512.000000) scale(0.100000,-0.100000)"
fill="white" stroke="none">
<path d="M345 5106 c-199 -49 -345 -237 -345 -443 0 -62 26 -159 57 -212 126
-217 395 -294 612 -176 64 35 151 125 185 193 l26 52 194 0 194 0 97 -171 c87
-152 96 -173 80 -181 -9 -6 -61 -45 -114 -89 -126 -100 -268 -250 -355 -372
l-68 -97 -454 0 -454 0 0 -150 0 -150 376 0 c297 0 375 -3 371 -12 -56 -134
-117 -378 -132 -520 l-7 -68 -304 0 -304 0 0 -150 0 -150 304 0 304 0 7 -68
c15 -142 76 -386 132 -519 4 -10 -74 -13 -371 -13 l-376 0 0 -150 0 -150 454
0 454 0 68 -97 c87 -122 229 -272 355 -372 53 -44 105 -83 114 -89 16 -8 7
-29 -80 -181 l-97 -171 -194 0 -194 0 -26 52 c-57 112 -181 210 -302 238 -73
17 -193 8 -265 -20 -152 -58 -269 -213 -284 -376 -28 -299 256 -550 546 -483
121 28 265 141 307 242 l19 47 285 2 284 3 138 240 c77 134 143 239 150 238 7
-1 51 -17 97 -37 47 -19 129 -47 183 -63 l98 -28 0 -327 0 -328 150 0 150 0 0
303 0 302 150 0 150 0 0 -302 0 -303 150 0 150 0 0 330 c0 308 1 330 18 330
18 0 273 87 334 113 l37 17 138 -243 139 -242 284 -3 285 -2 19 -46 c24 -59
109 -150 177 -191 268 -160 618 5 671 317 46 268 -167 520 -441 520 -169 0
-321 -92 -401 -241 l-31 -59 -193 0 -194 0 -97 171 c-53 94 -95 171 -94 173
140 89 378 320 483 469 l68 97 454 0 454 0 0 150 0 150 -376 0 c-354 0 -376 1
-369 18 55 135 116 374 130 515 l7 67 304 0 304 0 0 150 0 150 -304 0 -304 0
-7 68 c-14 140 -75 379 -130 515 -7 16 15 17 369 17 l376 0 0 150 0 150 -454
0 -454 0 -68 97 c-105 149 -343 380 -483 469 -1 2 41 79 94 173 l97 171 194 0
194 0 26 -52 c32 -63 114 -151 172 -185 186 -110 421 -73 567 89 191 213 130
559 -122 690 -194 102 -399 66 -548 -94 -29 -31 -61 -77 -71 -102 l-19 -46
-285 -2 -284 -3 -139 -242 -138 -243 -37 17 c-61 26 -316 113 -334 113 -17 0
-18 22 -18 330 l0 330 -150 0 -150 0 0 -302 0 -303 -150 0 -150 0 0 303 0 302
-150 0 -150 0 0 -330 c0 -288 -2 -330 -15 -330 -25 0 -235 -70 -304 -101 -35
-16 -67 -27 -70 -23 -3 3 -67 112 -141 242 l-136 237 -284 3 -285 2 -19 46
c-24 59 -109 150 -177 191 -98 58 -222 77 -334 49z m1504 -1965 c114 -35 214
-119 267 -223 49 -97 54 -143 54 -565 l0 -393 -150 0 -150 0 0 150 0 151 -152
-3 -153 -3 -3 -147 -3 -148 -144 0 -145 0 0 420 c0 414 0 420 23 483 51 141
175 253 314 286 67 16 177 12 242 -8z m1140 0 c83 -26 137 -60 198 -123 90
-96 128 -201 121 -332 -9 -140 -69 -251 -184 -339 -82 -62 -141 -79 -286 -85
l-128 -4 0 -149 0 -149 -150 0 -150 0 0 600 0 600 259 0 c226 0 267 -2 320
-19z m821 -581 l0 -600 -150 0 -150 0 0 600 0 600 150 0 150 0 0 -600z"/>
<path d="M1645 2841 c-64 -39 -84 -90 -85 -213 l0 -68 155 0 155 0 0 88 c0 73
-4 96 -23 132 -39 74 -135 103 -202 61z"/>
<path d="M2710 2710 l0 -150 93 0 c140 0 197 39 204 142 5 62 -17 106 -69 138
-27 16 -51 20 -130 20 l-98 0 0 -150z"/>
</g>
</svg>
