<?xml version="1.0" standalone="no"?>
<!DOCTYPE svg PUBLIC "-//W3C//DTD SVG 20010904//EN"
 "http://www.w3.org/TR/2001/REC-SVG-20010904/DTD/svg10.dtd">
<svg version="1.0" xmlns="http://www.w3.org/2000/svg"
 width="512.000000pt" height="512.000000pt" viewBox="0 0 512.000000 512.000000"
 preserveAspectRatio="xMidYMid meet">

<g transform="translate(0.000000,512.000000) scale(0.100000,-0.100000)"
fill="white" stroke="none">
<path d="M1688 5099 c-23 -12 -46 -35 -58 -59 -20 -38 -20 -57 -20 -870 0
-813 0 -832 20 -870 13 -26 34 -47 60 -60 38 -20 57 -20 870 -20 813 0 832 0
870 20 26 13 47 34 60 60 20 38 20 57 20 870 0 813 0 832 -20 870 -13 26 -34
47 -60 60 -38 20 -57 20 -872 20 -810 -1 -834 -1 -870 -21z"/>
<path d="M2410 2715 l0 -205 -845 0 c-828 0 -847 0 -885 -20 -26 -13 -47 -34
-60 -60 -19 -37 -20 -58 -20 -335 l0 -295 150 0 150 0 0 205 0 205 755 0 755
0 0 -205 0 -205 150 0 150 0 0 205 0 205 755 0 755 0 0 -205 0 -205 150 0 150
0 0 295 c0 277 -1 298 -20 335 -13 26 -34 47 -60 60 -38 20 -57 20 -885 20
l-845 0 0 205 0 205 -150 0 -150 0 0 -205z"/>
<path d="M78 1479 c-23 -12 -46 -35 -58 -59 -19 -38 -20 -58 -20 -670 0 -612
1 -632 20 -670 13 -26 34 -47 60 -60 38 -19 58 -20 670 -20 612 0 632 1 670
20 26 13 47 34 60 60 19 38 20 58 20 670 0 612 -1 632 -20 670 -13 26 -34 47
-60 60 -38 19 -57 20 -672 20 -610 -1 -634 -2 -670 -21z"/>
<path d="M1888 1479 c-23 -12 -46 -35 -58 -59 -19 -38 -20 -58 -20 -670 0
-612 1 -632 20 -670 13 -26 34 -47 60 -60 38 -19 58 -20 670 -20 612 0 632 1
670 20 26 13 47 34 60 60 19 38 20 58 20 670 0 612 -1 632 -20 670 -13 26 -34
47 -60 60 -38 19 -57 20 -672 20 -610 -1 -634 -2 -670 -21z"/>
<path d="M3698 1479 c-23 -12 -46 -35 -58 -59 -19 -38 -20 -58 -20 -670 0
-612 1 -632 20 -670 13 -26 34 -47 60 -60 38 -19 58 -20 670 -20 612 0 632 1
670 20 26 13 47 34 60 60 19 38 20 58 20 670 0 612 -1 632 -20 670 -13 26 -34
47 -60 60 -38 19 -57 20 -672 20 -610 -1 -634 -2 -670 -21z"/>
</g>
</svg>
