<?xml version="1.0" standalone="no"?>
<!DOCTYPE svg PUBLIC "-//W3C//DTD SVG 20010904//EN"
 "http://www.w3.org/TR/2001/REC-SVG-20010904/DTD/svg10.dtd">
<svg version="1.0" xmlns="http://www.w3.org/2000/svg"
 width="512.000000pt" height="512.000000pt" viewBox="0 0 512.000000 512.000000"
 preserveAspectRatio="xMidYMid meet">

<g transform="translate(0.000000,512.000000) scale(0.100000,-0.100000)"
fill="white" stroke="none">
<path d="M3319 5098 c-20 -13 -119 -111 -221 -218 l-186 -195 -111 -32 c-144
-42 -316 -111 -466 -185 -561 -280 -929 -734 -1080 -1333 -59 -237 -70 -336
-70 -660 0 -313 10 -427 63 -688 l27 -132 1083 -3 1083 -2 -3 178 -3 178 -189
264 c-191 268 -225 324 -226 371 -1 101 109 202 202 186 18 -3 188 -67 377
-142 364 -145 406 -156 502 -136 98 21 150 62 278 221 150 184 167 211 187
290 22 86 13 161 -29 240 -22 42 -163 204 -468 538 l-436 478 -47 345 c-27
189 -55 359 -63 377 -35 73 -136 104 -204 60z m-113 -1304 c71 -34 103 -126
69 -198 -53 -111 -211 -112 -265 -1 -25 52 -25 78 0 130 36 74 122 104 196 69z"/>
<path d="M2155 4773 c-77 -9 -237 -48 -324 -77 -224 -76 -420 -197 -594 -365
-403 -389 -623 -951 -687 -1753 -12 -141 -12 -149 9 -190 11 -24 34 -51 50
-61 31 -18 258 -117 269 -117 4 0 6 98 4 217 -4 244 8 405 44 603 139 764 569
1346 1253 1697 l104 53 -49 -1 c-27 -1 -62 -4 -79 -6z"/>
<path d="M1017 1328 c-65 -38 -77 -78 -77 -266 l0 -162 1451 0 1450 0 -3 178
c-3 164 -5 179 -25 208 -49 69 52 64 -1425 64 l-1333 0 -38 -22z"/>
<path d="M617 578 c-66 -39 -77 -77 -77 -278 0 -202 11 -240 79 -278 l39 -22
1732 0 c1918 0 1774 -5 1823 64 21 30 22 40 22 236 0 196 -1 206 -22 236 -49
69 95 64 -1825 64 l-1733 0 -38 -22z"/>
</g>
</svg>
