<?xml version="1.0" standalone="no"?>
<!DOCTYPE svg PUBLIC "-//W3C//DTD SVG 20010904//EN"
 "http://www.w3.org/TR/2001/REC-SVG-20010904/DTD/svg10.dtd">
<svg version="1.0" xmlns="http://www.w3.org/2000/svg"
 width="200.000000pt" height="200.000000pt" viewBox="0 0 200.000000 200.000000"
 preserveAspectRatio="xMidYMid meet">

<g transform="translate(0.000000,200.000000) scale(0.100000,-0.100000)"
fill="#e82928" stroke="none">
<path d="M198 1799 c-21 -12 -23 -42 -5 -58 10 -7 152 -12 463 -13 l449 -3 3
-712 2 -713 -456 -2 c-423 -3 -458 -4 -468 -20 -8 -13 -8 -23 0 -35 10 -17 47
-18 495 -21 446 -2 485 -1 496 15 10 13 13 185 13 778 0 725 -1 763 -18 778
-17 15 -65 17 -488 17 -300 0 -475 -4 -486 -11z"/>
<path d="M340 1440 c-8 -14 -8 -26 0 -40 11 -20 19 -20 252 -18 217 3 242 5
252 21 8 12 8 22 0 35 -10 15 -35 17 -252 20 -233 2 -241 2 -252 -18z"/>
<path d="M1449 1349 c-10 -20 2 -35 140 -173 83 -83 151 -156 151 -161 0 -6
-63 -73 -141 -150 -77 -77 -145 -148 -150 -158 -8 -14 -6 -23 7 -38 9 -10 22
-19 27 -19 21 0 357 344 357 365 0 13 -60 80 -168 188 -173 173 -199 190 -223
146z"/>
<path d="M346 1041 c-14 -16 -15 -24 -6 -40 11 -21 16 -21 258 -19 l247 3 3
23 c7 50 -3 52 -253 52 -216 0 -233 -1 -249 -19z"/>
<path d="M340 629 c-9 -16 -8 -24 6 -40 16 -18 33 -19 244 -19 245 0 265 4
258 51 l-3 24 -247 3 c-242 2 -247 2 -258 -19z"/>
</g>
</svg>
